<svg width="78" height="78" viewBox="0 0 78 78" fill="none" xmlns="http://www.w3.org/2000/svg">
<path d="M29.25 56.55L56.55 39L29.25 21.45V56.55ZM39 78C33.605 78 28.535 76.9756 23.79 74.9268C19.045 72.8806 14.9175 70.1025 11.4075 66.5925C7.8975 63.0825 5.1194 58.955 3.0732 54.21C1.0244 49.465 0 44.395 0 39C0 33.605 1.0244 28.535 3.0732 23.79C5.1194 19.045 7.8975 14.9175 11.4075 11.4075C14.9175 7.8975 19.045 5.1181 23.79 3.0693C28.535 1.0231 33.605 0 39 0C44.395 0 49.465 1.0231 54.21 3.0693C58.955 5.1181 63.0825 7.8975 66.5925 11.4075C70.1025 14.9175 72.8806 19.045 74.9268 23.79C76.9756 28.535 78 33.605 78 39C78 44.395 76.9756 49.465 74.9268 54.21C72.8806 58.955 70.1025 63.0825 66.5925 66.5925C63.0825 70.1025 58.955 72.8806 54.21 74.9268C49.465 76.9756 44.395 78 39 78Z" fill="#F22F04"/>
</svg>
