<svg width="34" height="34" viewBox="0 0 34 34" fill="none" xmlns="http://www.w3.org/2000/svg">
<path d="M29.4682 4.28791e-07C28.4874 -0.000431671 27.5329 0.325722 26.7483 0.92944C25.9636 1.53316 25.3912 2.38182 25.117 3.34787C24.8428 4.31392 24.8817 5.34516 25.2278 6.28659C25.5739 7.22802 26.2086 8.02878 27.0364 8.56851L24.0792 19.1857C23.9874 19.1797 23.8955 19.1765 23.8035 19.1762C22.8287 19.1751 21.8798 19.4983 21.0991 20.0971L15.6359 15.4269C15.8945 14.6397 15.9428 13.7958 15.7757 12.983C15.6086 12.1701 15.2323 11.4181 14.6858 10.805C14.1393 10.192 13.4427 9.74035 12.6684 9.49711C11.8941 9.25387 11.0704 9.22792 10.283 9.42194C9.49556 9.61597 8.77322 10.0229 8.1911 10.6004C7.60897 11.1779 7.18833 11.9048 6.97293 12.7056C6.75752 13.5064 6.75523 14.3517 6.96628 15.1537C7.17734 15.9557 7.59403 16.6851 8.17302 17.2659L4.96593 23.8459C4.82548 23.8323 4.68449 23.8253 4.54341 23.825C3.45775 23.8236 2.40756 24.2215 1.58349 24.9466C0.759412 25.6716 0.216066 26.6757 0.0520748 27.7767C-0.111916 28.8776 0.114319 30.0023 0.689714 30.9467C1.26511 31.8911 2.15152 32.5926 3.18806 32.9239C4.2246 33.2551 5.34256 33.1941 6.33901 32.752C7.33545 32.3098 8.14434 31.5159 8.61885 30.5142C9.09335 29.5125 9.20202 28.3695 8.92513 27.2926C8.64824 26.2157 8.00414 25.2764 7.10975 24.6451L10.1404 18.4281C10.8766 18.6365 11.6522 18.6501 12.3949 18.4678C13.1376 18.2854 13.8232 17.913 14.3876 17.3854L19.6771 21.9072C19.3179 22.7192 19.1939 23.62 19.32 24.5022C19.446 25.3845 19.8167 26.2109 20.3879 26.883C20.9591 27.5552 21.7067 28.0446 22.5415 28.293C23.3763 28.5413 24.2632 28.5382 25.0963 28.2839C25.9294 28.0296 26.6737 27.5349 27.2403 26.8587C27.807 26.1825 28.1721 25.3535 28.2922 24.4703C28.4123 23.5872 28.2822 22.6873 27.9176 21.8779C27.5529 21.0685 26.969 20.3837 26.2355 19.9053L29.1925 9.28813C29.2838 9.29379 29.3755 9.29757 29.4682 9.29757C30.6701 9.29757 31.8228 8.80779 32.6727 7.93597C33.5225 7.06415 34 5.88172 34 4.64878C34 3.41585 33.5225 2.23341 32.6727 1.3616C31.8228 0.489782 30.6701 4.28791e-07 29.4682 4.28791e-07V4.28791e-07ZM4.54341 30.7982C4.09526 30.7982 3.65718 30.6619 3.28455 30.4065C2.91193 30.1511 2.6215 29.788 2.45 29.3633C2.2785 28.9386 2.23363 28.4712 2.32106 28.0203C2.40849 27.5694 2.6243 27.1553 2.94119 26.8302C3.25808 26.5051 3.66182 26.2838 4.10136 26.1941C4.5409 26.1044 4.99649 26.1504 5.41053 26.3263C5.82457 26.5023 6.17845 26.8002 6.42743 27.1824C6.67641 27.5647 6.8093 28.0141 6.8093 28.4738C6.80863 29.0901 6.56969 29.6809 6.1449 30.1166C5.7201 30.5524 5.14416 30.7975 4.54341 30.7982V30.7982ZM11.3411 16.2707C10.8929 16.2707 10.4548 16.1344 10.0822 15.879C9.7096 15.6236 9.41918 15.2606 9.24768 14.8359C9.07618 14.4111 9.0313 13.9438 9.11873 13.4929C9.20616 13.042 9.42197 12.6278 9.73886 12.3028C10.0558 11.9777 10.4595 11.7563 10.899 11.6666C11.3386 11.5769 11.7942 11.623 12.2082 11.7989C12.6222 11.9748 12.9761 12.2727 13.2251 12.655C13.4741 13.0372 13.607 13.4866 13.607 13.9464C13.6063 14.5626 13.3674 15.1534 12.9426 15.5892C12.5178 16.0249 11.9418 16.2701 11.3411 16.2707ZM23.8035 26.1494C23.3553 26.1494 22.9173 26.0131 22.5446 25.7577C22.172 25.5023 21.8816 25.1393 21.7101 24.7145C21.5386 24.2898 21.4937 23.8224 21.5811 23.3715C21.6686 22.9207 21.8844 22.5065 22.2013 22.1814C22.5182 21.8564 22.9219 21.635 23.3614 21.5453C23.801 21.4556 24.2566 21.5016 24.6706 21.6776C25.0846 21.8535 25.4385 22.1514 25.6875 22.5337C25.9365 22.9159 26.0694 23.3653 26.0694 23.825C26.0687 24.4413 25.8298 25.0321 25.405 25.4678C24.9802 25.9036 24.4042 26.1487 23.8035 26.1494V26.1494ZM29.4682 6.97318C29.0201 6.97318 28.582 6.83685 28.2094 6.58145C27.8367 6.32604 27.5463 5.96302 27.3748 5.53829C27.2033 5.11356 27.1584 4.64621 27.2459 4.19532C27.3333 3.74443 27.5491 3.33026 27.866 3.00519C28.1829 2.68012 28.5866 2.45874 29.0262 2.36905C29.4657 2.27937 29.9213 2.3254 30.3353 2.50133C30.7494 2.67725 31.1033 2.97518 31.3522 3.35742C31.6012 3.73967 31.7341 4.18906 31.7341 4.64878C31.7334 5.26504 31.4945 5.85585 31.0697 6.29161C30.6449 6.72737 30.069 6.97248 29.4682 6.97318Z" fill="white"/>
</svg>
