<svg width="49" height="40" viewBox="0 0 49 40" fill="none" xmlns="http://www.w3.org/2000/svg">
<path d="M49 4.73812C47.6355 6.77777 45.9615 8.51647 43.9779 9.95423C43.9975 10.3398 44.0073 10.7757 44.0073 11.2617C44.0073 13.9623 43.6155 16.6662 42.8319 19.3733C42.0483 22.0805 40.8513 24.6717 39.241 27.1471C37.6307 29.6224 35.7125 31.8153 33.4865 33.7258C31.2604 35.6363 28.5846 37.1596 25.4591 38.2958C22.3335 39.4319 18.9837 40 15.4097 40C9.83197 40 4.69539 38.4868 0 35.4603C0.833376 35.5535 1.63265 35.6001 2.39783 35.6001C7.05761 35.6001 11.2195 34.1577 14.8836 31.273C12.711 31.233 10.7652 30.5609 9.04631 29.2567C7.32741 27.9525 6.14451 26.286 5.4976 24.2571C6.13703 24.3795 6.76812 24.4407 7.39089 24.4407C8.28731 24.4407 9.16938 24.3232 10.0371 24.0883C7.71847 23.6216 5.79497 22.4611 4.2666 20.6067C2.73829 18.7523 1.97413 16.612 1.97413 14.1857V14.0607C3.39731 14.8526 4.91536 15.2738 6.52827 15.3244C5.15473 14.4042 4.06573 13.2042 3.26125 11.7244C2.45672 10.2447 2.05445 8.64331 2.05445 6.92035C2.05445 5.10321 2.50756 3.4111 3.41377 1.84404C5.93524 4.95356 8.99052 7.43878 12.5796 9.29971C16.1688 11.1607 20.0192 12.1942 24.131 12.4003C23.9556 11.6658 23.8678 10.8993 23.8675 10.1009C23.8675 7.31298 24.8492 4.93253 26.8127 2.95952C28.7762 0.986506 31.145 0 33.9192 0C36.8237 0 39.2702 1.06281 41.2586 3.18844C43.5306 2.7362 45.6578 1.91821 47.6404 0.734479C46.8766 3.15021 45.4048 5.01378 43.2249 6.32519C45.2284 6.08594 47.1534 5.55691 48.9999 4.73812H49Z" fill="white"/>
</svg>
