<svg width="45" height="45" viewBox="0 0 45 45" fill="none" xmlns="http://www.w3.org/2000/svg">
<circle cx="22.5" cy="22.5" r="22.5" fill="white"/>
<path d="M4.996 27V18.6H6.94V25.416H11.152V27H4.996ZM16.1893 27.144C15.5253 27.144 14.9093 27.036 14.3413 26.82C13.7813 26.604 13.2933 26.3 12.8773 25.908C12.4693 25.516 12.1493 25.056 11.9173 24.528C11.6933 24 11.5813 23.424 11.5813 22.8C11.5813 22.176 11.6933 21.6 11.9173 21.072C12.1493 20.544 12.4733 20.084 12.8893 19.692C13.3053 19.3 13.7933 18.996 14.3533 18.78C14.9133 18.564 15.5213 18.456 16.1773 18.456C16.8413 18.456 17.4493 18.564 18.0013 18.78C18.5613 18.996 19.0453 19.3 19.4533 19.692C19.8693 20.084 20.1933 20.544 20.4253 21.072C20.6573 21.592 20.7733 22.168 20.7733 22.8C20.7733 23.424 20.6573 24.004 20.4253 24.54C20.1933 25.068 19.8693 25.528 19.4533 25.92C19.0453 26.304 18.5613 26.604 18.0013 26.82C17.4493 27.036 16.8453 27.144 16.1893 27.144ZM16.1773 25.488C16.5533 25.488 16.8973 25.424 17.2093 25.296C17.5293 25.168 17.8093 24.984 18.0493 24.744C18.2893 24.504 18.4733 24.22 18.6013 23.892C18.7373 23.564 18.8053 23.2 18.8053 22.8C18.8053 22.4 18.7373 22.036 18.6013 21.708C18.4733 21.38 18.2893 21.096 18.0493 20.856C17.8173 20.616 17.5413 20.432 17.2213 20.304C16.9013 20.176 16.5533 20.112 16.1773 20.112C15.8013 20.112 15.4533 20.176 15.1333 20.304C14.8213 20.432 14.5453 20.616 14.3053 20.856C14.0653 21.096 13.8773 21.38 13.7413 21.708C13.6133 22.036 13.5493 22.4 13.5493 22.8C13.5493 23.192 13.6133 23.556 13.7413 23.892C13.8773 24.22 14.0613 24.504 14.2933 24.744C14.5333 24.984 14.8133 25.168 15.1333 25.296C15.4533 25.424 15.8013 25.488 16.1773 25.488ZM26.2903 27.144C25.6263 27.144 25.0143 27.04 24.4543 26.832C23.9023 26.616 23.4183 26.312 23.0023 25.92C22.5943 25.528 22.2743 25.068 22.0423 24.54C21.8183 24.012 21.7063 23.432 21.7063 22.8C21.7063 22.168 21.8183 21.588 22.0423 21.06C22.2743 20.532 22.5983 20.072 23.0143 19.68C23.4303 19.288 23.9183 18.988 24.4783 18.78C25.0383 18.564 25.6543 18.456 26.3263 18.456C27.0703 18.456 27.7383 18.58 28.3303 18.828C28.9303 19.076 29.4343 19.436 29.8423 19.908L28.5943 21.06C28.2903 20.74 27.9583 20.504 27.5983 20.352C27.2383 20.192 26.8463 20.112 26.4223 20.112C26.0143 20.112 25.6423 20.176 25.3063 20.304C24.9703 20.432 24.6783 20.616 24.4303 20.856C24.1903 21.096 24.0023 21.38 23.8663 21.708C23.7383 22.036 23.6743 22.4 23.6743 22.8C23.6743 23.192 23.7383 23.552 23.8663 23.88C24.0023 24.208 24.1903 24.496 24.4303 24.744C24.6783 24.984 24.9663 25.168 25.2943 25.296C25.6303 25.424 25.9983 25.488 26.3983 25.488C26.7823 25.488 27.1543 25.428 27.5143 25.308C27.8823 25.18 28.2383 24.968 28.5823 24.672L29.6863 26.076C29.2303 26.42 28.6983 26.684 28.0903 26.868C27.4903 27.052 26.8903 27.144 26.2903 27.144ZM27.9103 25.824V22.668H29.6863V26.076L27.9103 25.824ZM35.5721 27.144C34.9081 27.144 34.2921 27.036 33.7241 26.82C33.1641 26.604 32.6761 26.3 32.2601 25.908C31.8521 25.516 31.5321 25.056 31.3001 24.528C31.0761 24 30.9641 23.424 30.9641 22.8C30.9641 22.176 31.0761 21.6 31.3001 21.072C31.5321 20.544 31.8561 20.084 32.2721 19.692C32.6881 19.3 33.1761 18.996 33.7361 18.78C34.2961 18.564 34.9041 18.456 35.5601 18.456C36.2241 18.456 36.8321 18.564 37.3841 18.78C37.9441 18.996 38.4281 19.3 38.8361 19.692C39.2521 20.084 39.5761 20.544 39.8081 21.072C40.0401 21.592 40.1561 22.168 40.1561 22.8C40.1561 23.424 40.0401 24.004 39.8081 24.54C39.5761 25.068 39.2521 25.528 38.8361 25.92C38.4281 26.304 37.9441 26.604 37.3841 26.82C36.8321 27.036 36.2281 27.144 35.5721 27.144ZM35.5601 25.488C35.9361 25.488 36.2801 25.424 36.5921 25.296C36.9121 25.168 37.1921 24.984 37.4321 24.744C37.6721 24.504 37.8561 24.22 37.9841 23.892C38.1201 23.564 38.1881 23.2 38.1881 22.8C38.1881 22.4 38.1201 22.036 37.9841 21.708C37.8561 21.38 37.6721 21.096 37.4321 20.856C37.2001 20.616 36.9241 20.432 36.6041 20.304C36.2841 20.176 35.9361 20.112 35.5601 20.112C35.1841 20.112 34.8361 20.176 34.5161 20.304C34.2041 20.432 33.9281 20.616 33.6881 20.856C33.4481 21.096 33.2601 21.38 33.1241 21.708C32.9961 22.036 32.9321 22.4 32.9321 22.8C32.9321 23.192 32.9961 23.556 33.1241 23.892C33.2601 24.22 33.4441 24.504 33.6761 24.744C33.9161 24.984 34.1961 25.168 34.5161 25.296C34.8361 25.424 35.1841 25.488 35.5601 25.488Z" fill="black"/>
</svg>
