<svg width="21" height="19" viewBox="0 0 21 19" fill="none" xmlns="http://www.w3.org/2000/svg">
<path d="M21 9.50032C21.0029 10.4711 20.8142 11.4327 20.4447 12.3296C20.0752 13.2265 19.5323 14.0407 18.8475 14.7251C18.6493 14.9217 18.3821 15.032 18.1037 15.032C17.8253 15.032 17.5581 14.9217 17.36 14.7251C17.2621 14.6271 17.1844 14.5106 17.1314 14.3823C17.0784 14.254 17.0511 14.1164 17.0511 13.9775C17.0511 13.8386 17.0784 13.701 17.1314 13.5727C17.1844 13.4444 17.2621 13.3279 17.36 13.2298C17.8478 12.7404 18.2349 12.1591 18.499 11.5191C18.763 10.8792 18.899 10.1932 18.899 9.50032C18.899 8.80748 18.763 8.12144 18.499 7.48148C18.2349 6.84152 17.8478 6.26021 17.36 5.77081C17.1627 5.57252 17.0519 5.30358 17.0519 5.02315C17.0519 4.74272 17.1627 4.47378 17.36 4.27549C17.5572 4.0772 17.8248 3.9658 18.1037 3.9658C18.3827 3.9658 18.6502 4.0772 18.8475 4.27549C19.5323 4.9599 20.0752 5.77414 20.4447 6.67101C20.8142 7.56789 21.0029 8.52957 21 9.50032ZM13.3 1.05615V17.9445C13.3005 18.1421 13.2459 18.3359 13.1422 18.5039C13.0386 18.6718 12.8901 18.8072 12.7137 18.8944C12.5688 18.9637 12.4104 18.9997 12.25 19C12.0165 18.9969 11.79 18.92 11.6025 18.7801L5.59124 14.0742H1.75C1.28658 14.0719 0.842794 13.8858 0.515103 13.5564C0.187413 13.227 0.00229989 12.7809 0 12.315V6.68559C0.00229989 6.21974 0.187413 5.77362 0.515103 5.44421C0.842794 5.11479 1.28658 4.92871 1.75 4.92639H5.59124L11.6025 0.220531C11.7591 0.100163 11.9459 0.0257626 12.142 0.00557877C12.3382 -0.0146051 12.5361 0.0202169 12.7137 0.106183C12.8901 0.193473 13.0386 0.328794 13.1422 0.496741C13.2459 0.664688 13.3005 0.858513 13.3 1.05615ZM2.1 11.9632H4.89999V7.03744H2.1V11.9632ZM11.2 3.21117L6.99999 6.50088V12.4998L11.2 15.7895V3.21117ZM16.3712 6.76476C16.174 6.56647 15.9064 6.45507 15.6275 6.45507C15.3485 6.45507 15.081 6.56647 14.8837 6.76476C14.6865 6.96305 14.5757 7.23199 14.5757 7.51242C14.5757 7.79285 14.6865 8.06179 14.8837 8.26008C15.0472 8.42211 15.1771 8.6152 15.2657 8.82811C15.3543 9.04102 15.3999 9.26952 15.3999 9.50032C15.3999 9.73111 15.3543 9.95961 15.2657 10.1725C15.1771 10.3854 15.0472 10.5785 14.8837 10.7406C14.7858 10.8386 14.7082 10.9551 14.6552 11.0834C14.6022 11.2117 14.5749 11.3493 14.5749 11.4882C14.5749 11.6271 14.6022 11.7647 14.6552 11.893C14.7082 12.0213 14.7858 12.1378 14.8837 12.2359C14.9809 12.3346 15.0968 12.4127 15.2246 12.4656C15.3523 12.5185 15.4893 12.5451 15.6275 12.5437C15.7658 12.5461 15.9031 12.52 16.031 12.467C16.1589 12.4141 16.2747 12.3354 16.3712 12.2359C16.7294 11.8771 17.0137 11.4508 17.2076 10.9814C17.4016 10.5119 17.5014 10.0086 17.5014 9.50032C17.5014 8.99201 17.4016 8.4887 17.2076 8.01927C17.0137 7.54984 16.7294 7.12351 16.3712 6.76476Z" fill="white"/>
</svg>
